<svg id="Capa_1" data-name="Capa 1" xmlns="http://www.w3.org/2000/svg" xmlns:xlink="http://www.w3.org/1999/xlink" viewBox="0 0 215.29 80"><defs><style>.cls-1{fill:none;}.cls-2{fill:#00202d;}.cls-3{fill:url(#Degradado_sin_nombre);}.cls-4{clip-path:url(#clip-path);}.cls-5{fill:url(#Degradado_sin_nombre_2);}.cls-6{clip-path:url(#clip-path-2);}.cls-7{clip-path:url(#clip-path-3);}.cls-8{clip-path:url(#clip-path-4);}.cls-9{clip-path:url(#clip-path-5);}.cls-10{clip-path:url(#clip-path-6);}.cls-11{clip-path:url(#clip-path-7);}.cls-12{clip-path:url(#clip-path-8);}.cls-13{clip-path:url(#clip-path-9);}.cls-14{clip-path:url(#clip-path-10);}.cls-15{clip-path:url(#clip-path-11);}.cls-16{clip-path:url(#clip-path-12);}.cls-17{clip-path:url(#clip-path-13);}.cls-18{clip-path:url(#clip-path-14);}.cls-19{clip-path:url(#clip-path-15);}.cls-20{clip-path:url(#clip-path-16);}.cls-21{clip-path:url(#clip-path-17);}.cls-22{clip-path:url(#clip-path-18);}.cls-23{clip-path:url(#clip-path-19);}.cls-24{clip-path:url(#clip-path-20);}.cls-25{clip-path:url(#clip-path-21);}.cls-26{clip-path:url(#clip-path-22);}.cls-27{clip-path:url(#clip-path-23);}.cls-28{fill:url(#Degradado_sin_nombre_24);}.cls-29{clip-path:url(#clip-path-24);}.cls-30{fill:url(#Degradado_sin_nombre_25);}.cls-31{clip-path:url(#clip-path-25);}.cls-32{clip-path:url(#clip-path-26);}.cls-33{clip-path:url(#clip-path-27);}.cls-34{fill:#080f1d;}.cls-35{clip-path:url(#clip-path-28);}.cls-36{clip-path:url(#clip-path-29);}.cls-37{clip-path:url(#clip-path-30);}.cls-38{clip-path:url(#clip-path-31);}.cls-39{fill:url(#Degradado_sin_nombre_32);}.cls-40{clip-path:url(#clip-path-32);}.cls-41{clip-path:url(#clip-path-33);}</style><linearGradient id="Degradado_sin_nombre" x1="3.46" y1="33" x2="57.4" y2="33" gradientTransform="matrix(1, 0, 0, -1, 0, 79.99)" gradientUnits="userSpaceOnUse"><stop offset="0" stop-color="#bbafa6"/><stop offset="0.16" stop-color="#c8beb6"/><stop offset="0.45" stop-color="#eae8e6"/><stop offset="0.5" stop-color="#f2f2f2"/><stop offset="1" stop-color="#bbafa6"/></linearGradient><clipPath id="clip-path" transform="translate(0.04)"><polygon class="cls-1" points="3.84 50.18 4.77 50.18 4.77 50.52 4.22 50.52 4.22 51.32 4.69 51.32 4.69 51.66 4.22 51.66 4.22 52.59 4.77 52.59 4.77 52.92 3.84 52.92 3.84 50.18"/></clipPath><linearGradient id="Degradado_sin_nombre_2" x1="2.87" y1="27.97" x2="59.05" y2="27.97" gradientTransform="matrix(1, 0, 0, -1, 0.04, 79.99)" xlink:href="#Degradado_sin_nombre"/><clipPath id="clip-path-2" transform="translate(0.04)"><path class="cls-1" d="M6.25,50.18l.21.63a.59.59,0,0,1,0,.26h0a1,1,0,0,1,0-.34l.17-.59h.38l-.42,1.35.46,1.44H6.8l-.21-.77a.78.78,0,0,0,0-.25h0c0,.21,0,.21,0,.25l-.21.77H5.87l.42-1.44-.42-1.35h.38Z"/></clipPath><clipPath id="clip-path-3" transform="translate(0.04)"><path class="cls-1" d="M8.36,50.94c0-.25,0-.8.64-.8s.59.46.59.67v.34H9.21v-.42c0-.09,0-.3-.21-.3s-.21.21-.21.34v1.52c0,.17,0,.34.21.34s.21-.17.21-.34v-.51h.38v.47c0,.29-.09.72-.59.72a.62.62,0,0,1-.51-.26.85.85,0,0,1-.08-.46V50.94Z"/></clipPath><clipPath id="clip-path-4" transform="translate(0.04)"><polygon class="cls-1" points="10.94 50.18 11.87 50.18 11.87 50.52 11.32 50.52 11.32 51.32 11.79 51.32 11.79 51.66 11.32 51.66 11.32 52.59 11.87 52.59 11.87 52.92 10.94 52.92 10.94 50.18"/></clipPath><clipPath id="clip-path-5" transform="translate(0.04)"><polygon class="cls-1" points="13.56 50.18 13.56 52.63 14.15 52.63 14.15 52.97 13.18 52.97 13.18 50.22 13.56 50.22 13.56 50.18"/></clipPath><clipPath id="clip-path-6" transform="translate(0.04)"><polygon class="cls-1" points="15.76 50.18 15.76 52.63 16.35 52.63 16.35 52.97 15.38 52.97 15.38 50.22 15.76 50.22 15.76 50.18"/></clipPath><clipPath id="clip-path-7" transform="translate(0.04)"><polygon class="cls-1" points="17.57 50.18 18.5 50.18 18.5 50.52 17.95 50.52 17.95 51.32 18.42 51.32 18.42 51.66 17.95 51.66 17.95 52.59 18.5 52.59 18.5 52.92 17.57 52.92 17.57 50.18"/></clipPath><clipPath id="clip-path-8" transform="translate(0.04)"><path class="cls-1" d="M20.19,50.18,20.61,52a.59.59,0,0,1,0,.26h.05c0-.13-.05-.26-.05-.38V50.18H21v2.75h-.42l-.46-2h0v.5l0,1.61h-.34V50.26h.38Z"/></clipPath><clipPath id="clip-path-9" transform="translate(0.04)"><path class="cls-1" d="M22.34,50.94c0-.25,0-.8.64-.8s.59.46.59.67v.34h-.38v-.42c0-.09,0-.3-.21-.3s-.21.21-.21.34v1.52c0,.17,0,.34.21.34s.21-.17.21-.34v-.51h.38v.47c0,.29-.09.72-.59.72a.62.62,0,0,1-.51-.26.85.85,0,0,1-.08-.46V50.94Z"/></clipPath><clipPath id="clip-path-10" transform="translate(0.04)"><polygon class="cls-1" points="24.92 50.18 25.85 50.18 25.85 50.52 25.3 50.52 25.3 51.32 25.77 51.32 25.77 51.66 25.3 51.66 25.3 52.59 25.85 52.59 25.85 52.92 24.92 52.92 24.92 50.18"/></clipPath><clipPath id="clip-path-11" transform="translate(0.04)"><path class="cls-1" d="M28.76,50.18h.64c.42,0,.42.17.42.68s0,.59-.3.59h0a.22.22,0,0,1,.26.21v.55c0,.55,0,.67-.51.67h-.55v-2.7Zm.38,1.18c.26,0,.3,0,.34-.08a1.11,1.11,0,0,0,0-.38v-.21c0-.13,0-.17,0-.17h-.29v.84Zm0,.3v1h.17c.09,0,.13,0,.17,0a1.43,1.43,0,0,0,0-.43c0-.42,0-.46-.16-.46h-.22Z"/></clipPath><clipPath id="clip-path-12" transform="translate(0.04)"><path class="cls-1" d="M31.3,50.18h.34v2.15c0,.17,0,.38.21.38s.21-.17.21-.38V50.22h.38v2.11c0,.21,0,.72-.59.72a.55.55,0,0,1-.55-.63Z"/></clipPath><clipPath id="clip-path-13" transform="translate(0.04)"><path class="cls-1" d="M34.09,52.46c0,.08,0,.25.17.25s.16-.17.16-.33a1.15,1.15,0,0,0-.29-.76,1.65,1.65,0,0,1-.38-.89,1.07,1.07,0,0,1,.08-.38.55.55,0,0,1,.47-.21c.34,0,.46.17.46.46v.51h-.29V50.6c0-.08,0-.17-.13-.17s-.17.13-.17.3.09.42.34.8a1.39,1.39,0,0,1,.34.85.78.78,0,0,1-.13.46.47.47,0,0,1-.42.17.52.52,0,0,1-.55-.59V52h.34Z"/></clipPath><clipPath id="clip-path-14" transform="translate(0.04)"><rect class="cls-1" x="36.16" y="50.18" width="0.38" height="2.75"/></clipPath><clipPath id="clip-path-15" transform="translate(0.04)"><path class="cls-1" d="M38.35,50.18,38.78,52a.59.59,0,0,1,0,.26h0c0-.13,0-.26,0-.38V50.18h.34v2.75h-.43l-.46-2.07h0v.5l0,1.61h-.34V50.22h.42Z"/></clipPath><clipPath id="clip-path-16" transform="translate(0.04)"><polygon class="cls-1" points="40.55 50.18 41.48 50.18 41.48 50.52 40.93 50.52 40.93 51.32 41.39 51.32 41.39 51.66 40.93 51.66 40.93 52.59 41.48 52.59 41.48 52.92 40.55 52.92 40.55 50.18"/></clipPath><clipPath id="clip-path-17" transform="translate(0.04)"><path class="cls-1" d="M43,52.46c0,.08,0,.25.17.25s.17-.17.17-.33a1.12,1.12,0,0,0-.3-.76,1.65,1.65,0,0,1-.38-.89,1.06,1.06,0,0,1,.09-.38.52.52,0,0,1,.46-.21c.34,0,.47.17.47.46v.51h-.34V50.6c0-.08,0-.17-.13-.17s-.17.13-.17.3.09.42.34.8a1.39,1.39,0,0,1,.34.85.72.72,0,0,1-.13.46.45.45,0,0,1-.42.17.52.52,0,0,1-.55-.59V52H43v.51Z"/></clipPath><clipPath id="clip-path-18" transform="translate(0.04)"><path class="cls-1" d="M45.41,52.46c0,.08,0,.25.17.25s.16-.17.16-.33a1.15,1.15,0,0,0-.29-.76,1.65,1.65,0,0,1-.38-.89,1.07,1.07,0,0,1,.08-.38.55.55,0,0,1,.47-.21c.34,0,.46.17.46.46v.51h-.34V50.6c0-.08,0-.17-.12-.17s-.17.13-.17.3.08.42.34.8a1.38,1.38,0,0,1,.33.85.78.78,0,0,1-.12.46.47.47,0,0,1-.42.17.51.51,0,0,1-.51-.59V52h.34Z"/></clipPath><clipPath id="clip-path-19" transform="translate(0.04)"><path class="cls-1" d="M49.12,50.94c0-.25,0-.8.64-.8s.59.46.59.67v.34H50v-.42c0-.09,0-.3-.21-.3s-.21.21-.21.34v1.52c0,.17,0,.34.21.34s.21-.17.21-.34v-.51h.38v.47c0,.29-.09.72-.59.72a.62.62,0,0,1-.51-.26.85.85,0,0,1-.08-.46V50.94Z"/></clipPath><clipPath id="clip-path-20" transform="translate(0.04)"><polygon class="cls-1" points="52.04 50.18 52.04 52.63 52.63 52.63 52.63 52.97 51.66 52.97 51.66 50.22 52.04 50.22 52.04 50.18"/></clipPath><clipPath id="clip-path-21" transform="translate(0.04)"><path class="cls-1" d="M53.85,50.18h.34v2.15c0,.17,0,.38.21.38s.21-.17.21-.38V50.22H55v2.11c0,.21,0,.72-.59.72a.55.55,0,0,1-.55-.63Z"/></clipPath><clipPath id="clip-path-22" transform="translate(0.04)"><path class="cls-1" d="M56.43,50.18h.63c.43,0,.43.17.43.68s0,.59-.3.59h0c.09,0,.21,0,.25.21v.55c0,.55,0,.67-.5.67h-.51Zm.38,1.18c.25,0,.3,0,.34-.08a1.11,1.11,0,0,0,0-.38v-.21c0-.13,0-.17,0-.17h-.3v.84Zm0,.3v1H57c.08,0,.13,0,.17,0a1.43,1.43,0,0,0,0-.43c0-.42,0-.46-.17-.46h-.21Z"/></clipPath><clipPath id="clip-path-23" transform="translate(0.04)"><path class="cls-1" d="M29.69,8.24l.26-.3H27.29l-2.62,3h2.66ZM28,11h5L31.59,9.42,30.45,8.11l-1.73,2Zm-3.25.51,4.94,5.19-2.36-5.19Zm8.36,0H27.79l2.62,5.79v0l2.49-5.49Zm-1.81,5.19,4.94-5.19H33.62ZM36.2,11,33.58,8H31l2.58,3Z"/></clipPath><linearGradient id="Degradado_sin_nombre_24" x1="0.17" y1="70.4" x2="60.49" y2="70.4" gradientTransform="matrix(1, 0, 0, -1, 0.04, 79.99)" xlink:href="#Degradado_sin_nombre"/><clipPath id="clip-path-24" transform="translate(0.04)"><path class="cls-1" d="M22.34,70.67a32.82,32.82,0,0,1,8.2-.93,29.41,29.41,0,0,1,8.78,1.09,54.86,54.86,0,0,0-8.78-.59A81.64,81.64,0,0,0,22.34,70.67Z"/></clipPath><linearGradient id="Degradado_sin_nombre_25" x1="-0.04" y1="15.47" x2="60.44" y2="15.47" gradientTransform="matrix(1, 0, 0, -1, 0.04, 79.99)" xlink:href="#Degradado_sin_nombre"/><clipPath id="clip-path-25" transform="translate(0.04)"><polygon class="cls-1" points="29.06 61.67 27.92 62.68 27.96 63.57 26.82 64.54 26.86 69.99 28.55 69.99 28.55 69.99 29.14 69.99 29.14 62.05 30.16 62.68 30.2 68.55 30.37 68.38 30.41 62.51 29.06 61.67"/></clipPath><clipPath id="clip-path-26" transform="translate(0.04)"><polygon class="cls-1" points="34.85 65.85 33.71 64.96 33.71 64.16 32.57 63.32 31.26 64.03 31.26 68.51 31.47 68.64 31.47 64.16 32.48 63.61 32.48 70.03 33.71 69.99 33.71 69.99 34.85 69.99 34.85 65.85"/></clipPath><clipPath id="clip-path-27" transform="translate(0.04)"><polyline class="cls-1" points="32.57 63.32 31.26 63.99 31.26 68.47 31.47 68.6 31.47 64.12 32.48 63.61"/></clipPath><clipPath id="clip-path-28" transform="translate(0.04)"><polygon class="cls-1" points="31.34 60.91 31.34 60.27 31.09 60.27 30.83 58.2 30.54 60.27 30.33 60.27 30.33 60.91 30.16 60.91 30.16 69.99 30.79 69.99 31.47 69.99 31.47 60.91 31.34 60.91"/></clipPath><clipPath id="clip-path-29" transform="translate(0.04)"><polygon class="cls-1" points="29.61 62.72 29.69 62.81 29.69 69.99 29.61 69.99 29.61 62.72"/></clipPath><clipPath id="clip-path-30" transform="translate(0.04)"><polygon class="cls-1" points="31.98 64.16 31.85 64.25 31.85 69.99 31.98 69.99 31.98 64.16"/></clipPath><clipPath id="clip-path-31" transform="translate(0.04)"><path class="cls-1" d="M18,39.54C16.9,40.59,15.8,40.63,14,40.68H11.66V33a4.86,4.86,0,0,1,2.28.21,3.16,3.16,0,0,1,1.6,3h.81V29h-.81a3.71,3.71,0,0,1-.88,2.49,2.79,2.79,0,0,1-2.16.67h-.88V24.67h1.6a6.81,6.81,0,0,1,4.22,1,4.22,4.22,0,0,1,1.65,2.7h.76V23.86H4.18v.81H6v16H4.18v.84H20.53V35.65h-.76A7.68,7.68,0,0,1,18,39.54Z"/></clipPath><linearGradient id="Degradado_sin_nombre_32" x1="3.04" y1="46.98" x2="58.16" y2="46.98" gradientTransform="matrix(1, 0, 0, -1, 0.04, 79.99)" xlink:href="#Degradado_sin_nombre"/><clipPath id="clip-path-32" transform="translate(0.04)"><path class="cls-1" d="M35.44,32.44A16.82,16.82,0,0,0,33,32a6.71,6.71,0,0,0,3.92-1.27,3.39,3.39,0,0,0,1.27-2.7c0-1.74-.93-3.59-3.8-4.06a22.3,22.3,0,0,0-3.25-.13H21.67v.81h1.81v16H21.67v.8h7.56c2.91,0,5.62,0,7.43-1.06A4.25,4.25,0,0,0,39,36.58C39,34.72,37.89,33.12,35.44,32.44Zm-6.25-7.73a6.12,6.12,0,0,1,2.32.17c.84.38,1.06,1.05,1.06,3.17,0,3.21-.76,3.63-2.92,3.63h-.46Zm0,16v-8.2c1.94,0,3.71,0,3.71,3.89C33,40.55,31.76,40.63,29.19,40.68Z"/></clipPath><clipPath id="clip-path-33" transform="translate(0.04)"><path class="cls-1" d="M55.88,36a9,9,0,0,1-2.57,4.13,5.1,5.1,0,0,1-3.05,1.06A3.76,3.76,0,0,1,46.46,38a11.3,11.3,0,0,1-.29-2c-.09-1.14-.13-2.24-.13-3.34,0-3.46.21-8.36,4.22-8.36a4.9,4.9,0,0,1,4.1,2.32A6.94,6.94,0,0,1,55.25,29h.89L56,23.86h-.76L54.49,25a7.47,7.47,0,0,0-4.94-1.61c-5.71,0-9.68,4.06-9.68,9.38,0,5.15,3.76,9.12,9.63,9.12a7.7,7.7,0,0,0,5.41-1.82l.63,1.36h.81l.46-5.58h-.93Z"/></clipPath></defs><path class="cls-2" d="M83.55,22.81v5.62H84c1.39,0,2.2-.81,2.41-2.37H87v5.41h-.63C86.25,29.86,85.45,29,84,29h-.42v5.74h2.28c2,0,3.29-1.22,3.93-3.71h.67l-.29,4.35H78.61v-.64H80.3v-12H78.61v-.64h11.1l.17,3.72h-.63a4.31,4.31,0,0,0-1.56-2.45,4.7,4.7,0,0,0-2.45-.59Z" transform="translate(0.04)"/><path class="cls-2" d="M99.39,27.24l4.52,7.52H105v.64H98.42v-.64h1.77L97.4,30.07,95,33.45a2.25,2.25,0,0,0-.55,1.06c0,.17.26.25.76.25h.89v.64H91.7v-.64h.38a2,2,0,0,0,1.06-.17,3.78,3.78,0,0,0,.8-.93l3-4.26-4-6.63H91.66v-.64h6.42v.64h-1.4L99,26.61l2-2.83a1.57,1.57,0,0,0,.38-.72c0-.21-.21-.29-.67-.29h-1v-.64h4.48v.64h-.76a1.94,1.94,0,0,0-.8.12,3.22,3.22,0,0,0-.76.85Z" transform="translate(0.04)"/><path class="cls-2" d="M114.76,22.3l.09,3.72h-.64c-.59-2.28-1.69-3.42-3.25-3.42a1.62,1.62,0,0,0-1.56.93,9.45,9.45,0,0,0-.47,3.8,34,34,0,0,0,.34,6.42,1.44,1.44,0,0,0,1.52,1.1c1.65,0,2.83-1.19,3.59-3.51H115l-.22,4.1h-.63c-.21-.26-.42-.59-.72-.93a4.54,4.54,0,0,1-2.91,1,5,5,0,0,1-3.72-1.77,6.91,6.91,0,0,1-1.6-4.9,7.75,7.75,0,0,1,1.6-5,4.94,4.94,0,0,1,4-1.94,4,4,0,0,1,2.58,1,3.56,3.56,0,0,0,.72-.63h.63Z" transform="translate(0.04)"/><path class="cls-2" d="M121,22.81v5.62h.43c1.39,0,2.19-.81,2.4-2.37h.64v5.41h-.64c-.12-1.61-.93-2.45-2.4-2.45H121v5.74h2.28c2,0,3.3-1.22,3.93-3.71h.68l-.3,4.35H116.07v-.64h1.69v-12h-1.69v-.64h11.11l.17,3.72h-.63a4.31,4.31,0,0,0-1.57-2.45,4.65,4.65,0,0,0-2.45-.59Z" transform="translate(0.04)"/><path class="cls-2" d="M140.06,35.44H128.91V34.8h1.82v-12h-1.82v-.63h7v.63h-2v12h1.27a7.34,7.34,0,0,0,1.56-.12,2.77,2.77,0,0,0,1.1-.64,4.05,4.05,0,0,0,1-1.35,10.84,10.84,0,0,0,.76-1.77h.63Z" transform="translate(0.04)"/><path class="cls-2" d="M152.1,35.44H141V34.8h1.82v-12H141v-.63h7v.63h-2v12h1.26a7.38,7.38,0,0,0,1.57-.12A2.81,2.81,0,0,0,149.9,34a4,4,0,0,0,1-1.35,11.79,11.79,0,0,0,.76-1.77h.63Z" transform="translate(0.04)"/><path class="cls-2" d="M158.23,22.81v5.62h.42c1.39,0,2.19-.81,2.41-2.37h.63v5.41h-.63c-.13-1.61-.93-2.45-2.41-2.45h-.42v5.74h2.28c2,0,3.29-1.22,3.93-3.71h.67l-.29,4.35H153.28v-.64H155v-12h-1.69v-.64h11.11l.17,3.72h-.63a4.31,4.31,0,0,0-1.56-2.45,4.7,4.7,0,0,0-2.45-.59Z" transform="translate(0.04)"/><path class="cls-2" d="M171.11,22.13,176.39,30V24.24a2.5,2.5,0,0,0-.17-1.18c-.13-.21-.42-.25-.93-.25h-.63v-.63h4v.63h-.47a1.35,1.35,0,0,0-.92.21,1.52,1.52,0,0,0-.17.93V35.61h-.72L168.53,24v9.59c0,.55,0,.88.17,1s.42.21.93.21h.76v.64h-4.22v-.64h.5c.55,0,.85-.08,1-.25a3.34,3.34,0,0,0,.16-1.44V23.91a2.09,2.09,0,0,0-.12-.93c-.09-.13-.38-.21-.85-.21h-.72v-.64Z" transform="translate(0.04)"/><path class="cls-2" d="M189.14,22.3l.09,3.72h-.63q-.9-3.42-3.26-3.42a1.63,1.63,0,0,0-1.56.93,9.5,9.5,0,0,0-.46,3.8,34.38,34.38,0,0,0,.33,6.42,1.44,1.44,0,0,0,1.52,1.1c1.65,0,2.83-1.19,3.59-3.51h.64l-.21,4.1h-.64c-.21-.26-.42-.59-.71-.93a4.59,4.59,0,0,1-2.92,1,5,5,0,0,1-3.72-1.77,7,7,0,0,1-1.6-4.9,7.75,7.75,0,0,1,1.6-5,5,5,0,0,1,4-1.94,4,4,0,0,1,2.57,1,3.56,3.56,0,0,0,.72-.63h.63Z" transform="translate(0.04)"/><path class="cls-2" d="M195.4,22.81v5.62h.42c1.39,0,2.19-.81,2.41-2.37h.63v5.41h-.63c-.13-1.61-.93-2.45-2.41-2.45h-.42v5.74h2.28c2,0,3.29-1.22,3.93-3.71h.67L202,35.4H190.45v-.64h1.69v-12h-1.69v-.64h11.11l.17,3.72h-.63a4.31,4.31,0,0,0-1.56-2.45,4.7,4.7,0,0,0-2.45-.59Z" transform="translate(0.04)"/><path class="cls-2" d="M77.34,55.71H70.5v-.63h1.69v-12H70.5v-.63h7a5.23,5.23,0,0,1,3.51.93,2.81,2.81,0,0,1,1,2.15,2.84,2.84,0,0,1-.8,1.95,4.55,4.55,0,0,1-2.83,1.18v0c2.74.34,4.14,1.48,4.14,3.34a3.16,3.16,0,0,1-1.31,2.66A6.6,6.6,0,0,1,77.34,55.71Zm-1.9-12.63v5.33h.76A2.93,2.93,0,0,0,78.14,48a3.41,3.41,0,0,0,.51-2.28,4.08,4.08,0,0,0-.38-2.11c-.26-.38-.85-.55-1.78-.55h-1Zm1,6h-1v6h.76a3.15,3.15,0,0,0,2.28-.59A4.47,4.47,0,0,0,79,51.83a3.18,3.18,0,0,0-.6-2.24A2.73,2.73,0,0,0,76.45,49Z" transform="translate(0.04)"/><path class="cls-2" d="M88.41,43.08v8.58a3.71,3.71,0,0,0,.76,2.74,2.85,2.85,0,0,0,2,.72,3.93,3.93,0,0,0,1.74-.38,2.81,2.81,0,0,0,1.22-1.1,5,5,0,0,0,.46-2.49v-7a2.89,2.89,0,0,0-.08-.85c0-.08-.34-.16-.84-.16h-.93v-.64H97v.64h-.63c-.51,0-.81,0-.93.16s-.17.43-.17.93v6.89A8.83,8.83,0,0,1,95,53.39a3.41,3.41,0,0,1-1.35,1.77,5.45,5.45,0,0,1-3.33.76A10.53,10.53,0,0,1,88,55.67a3.61,3.61,0,0,1-1.81-1,3.12,3.12,0,0,1-.89-1.44,6.71,6.71,0,0,1-.17-1.69V43.13H83.38v-.64h6.84v.64H88.41Z" transform="translate(0.04)"/><path class="cls-2" d="M105.6,42.49l.17,3.55H105a5.62,5.62,0,0,0-1.43-2.45,3,3,0,0,0-2-.72,2.34,2.34,0,0,0-1.6.59,1.88,1.88,0,0,0-.63,1.4,1.46,1.46,0,0,0,.63,1.35,9.56,9.56,0,0,0,2.24.72,5.83,5.83,0,0,1,3.29,1.56,4.27,4.27,0,0,1,.85,2.66,5.25,5.25,0,0,1-1.1,3.3,3.73,3.73,0,0,1-3.08,1.39A4.05,4.05,0,0,1,99.64,55c-.38.3-.72.59-1,.85H98V51.91h.76c.59,2.2,1.69,3.25,3.38,3.25a2.5,2.5,0,0,0,2-.8,2.65,2.65,0,0,0,.72-1.73,1.55,1.55,0,0,0-.3-1,2.56,2.56,0,0,0-.72-.68,9.23,9.23,0,0,0-2.28-.63,4.67,4.67,0,0,1-2.74-1.44A4.42,4.42,0,0,1,99,43.38a3.53,3.53,0,0,1,2.66-1.18A4.24,4.24,0,0,1,104,43a8.3,8.3,0,0,0,.85-.59h.72Z" transform="translate(0.04)"/><path class="cls-2" d="M112.52,43.08v12h1.82v.63h-6.8v-.63h1.73v-12h-1.73v-.63h6.8v.63Z" transform="translate(0.04)"/><path class="cls-2" d="M120,42.41l5.28,7.81v-5.7a2.5,2.5,0,0,0-.17-1.18c-.13-.21-.42-.26-.93-.26h-.63v-.63h4v.63h-.46a1.42,1.42,0,0,0-.93.21,1.54,1.54,0,0,0-.17.93V55.88h-.72l-7.86-11.66v9.59a1.79,1.79,0,0,0,.17,1,1.44,1.44,0,0,0,.93.21h.76v.63h-4.22V55h.5c.55,0,.85-.09,1-.26a4.07,4.07,0,0,0,.17-1.43V44.18a2.07,2.07,0,0,0-.13-.93c-.09-.12-.38-.21-.85-.21H115v-.63Z" transform="translate(0.04)"/><path class="cls-2" d="M133.31,43.08V48.7h.42c1.39,0,2.19-.8,2.41-2.36h.63v5.4h-.63c-.13-1.6-.93-2.45-2.41-2.45h-.42V55h2.28c2,0,3.29-1.23,3.92-3.72h.68l-.3,4.35H128.36V55h1.69V43h-1.69v-.63h11.11l.17,3.71H139a4.35,4.35,0,0,0-1.57-2.45,4.65,4.65,0,0,0-2.45-.59Z" transform="translate(0.04)"/><path class="cls-2" d="M149.31,42.49l.17,3.55h-.8a5.62,5.62,0,0,0-1.44-2.45,2.92,2.92,0,0,0-1.94-.72,2.34,2.34,0,0,0-1.6.59,1.86,1.86,0,0,0-.64,1.4,1.45,1.45,0,0,0,.64,1.35,9.61,9.61,0,0,0,2.23.72,5.83,5.83,0,0,1,3.3,1.56,4.27,4.27,0,0,1,.84,2.66,5.3,5.3,0,0,1-1.09,3.3,3.74,3.74,0,0,1-3.09,1.39,4,4,0,0,1-2.53-.89c-.38.3-.72.59-1,.85h-.59V51.91h.76c.59,2.2,1.69,3.25,3.38,3.25a2.49,2.49,0,0,0,2-.8,2.65,2.65,0,0,0,.72-1.73,1.55,1.55,0,0,0-.3-1,2.56,2.56,0,0,0-.72-.68,9.23,9.23,0,0,0-2.28-.63,4.7,4.7,0,0,1-2.74-1.44,4.42,4.42,0,0,1,.17-5.53,3.53,3.53,0,0,1,2.66-1.18,4.29,4.29,0,0,1,2.41.84,9.53,9.53,0,0,0,.84-.59h.63Z" transform="translate(0.04)"/><path class="cls-2" d="M159.24,42.49l.17,3.55h-.8a5.71,5.71,0,0,0-1.44-2.45,2.92,2.92,0,0,0-1.94-.72,2.34,2.34,0,0,0-1.61.59,1.88,1.88,0,0,0-.63,1.4,1.46,1.46,0,0,0,.63,1.35,9.56,9.56,0,0,0,2.24.72,5.86,5.86,0,0,1,3.3,1.56,4.33,4.33,0,0,1,.84,2.66,5.25,5.25,0,0,1-1.1,3.3,3.72,3.72,0,0,1-3.08,1.39,4.05,4.05,0,0,1-2.54-.89c-.38.3-.71.59-1,.85h-.68V51.91h.76c.6,2.2,1.69,3.25,3.38,3.25a2.49,2.49,0,0,0,2-.8,2.6,2.6,0,0,0,.72-1.73,1.55,1.55,0,0,0-.3-1,2.67,2.67,0,0,0-.71-.68,9.53,9.53,0,0,0-2.29-.63,4.7,4.7,0,0,1-2.74-1.44,4.42,4.42,0,0,1,.17-5.53,3.41,3.41,0,0,1,2.66-1.18,4.29,4.29,0,0,1,2.41.84,8.25,8.25,0,0,0,.84-.59h.72Z" transform="translate(0.04)"/><path class="cls-2" d="M176,42.58l.08,3.71h-.63c-.59-2.28-1.69-3.42-3.25-3.42a1.65,1.65,0,0,0-1.57.93,9.72,9.72,0,0,0-.46,3.8,33.89,33.89,0,0,0,.34,6.42,1.44,1.44,0,0,0,1.52,1.1c1.65,0,2.83-1.18,3.59-3.5h.63l-.21,4.09h-.63c-.21-.25-.43-.59-.72-.93a4.54,4.54,0,0,1-2.92,1A4.93,4.93,0,0,1,168.07,54a6.92,6.92,0,0,1-1.61-4.9,7.67,7.67,0,0,1,1.61-5,4.94,4.94,0,0,1,4-2,4,4,0,0,1,2.58,1,3.82,3.82,0,0,0,.71-.64H176Z" transform="translate(0.04)"/><path class="cls-2" d="M188.22,55.71H177.06v-.63h1.82v-12h-1.82v-.63h7v.63h-2v12h1.27a6.55,6.55,0,0,0,1.56-.13,2.62,2.62,0,0,0,1.1-.63A4.16,4.16,0,0,0,187,53a10.59,10.59,0,0,0,.76-1.78h.64Z" transform="translate(0.04)"/><path class="cls-2" d="M194,43.08v8.58a3.75,3.75,0,0,0,.76,2.74,2.89,2.89,0,0,0,2,.72,3.92,3.92,0,0,0,1.73-.38,2.78,2.78,0,0,0,1.23-1.1,5.14,5.14,0,0,0,.46-2.49v-7a2.89,2.89,0,0,0-.08-.85c0-.08-.34-.16-.85-.16h-.93v-.64h4.23v.64h-.64a1.56,1.56,0,0,0-.93.16,1.54,1.54,0,0,0-.17.93v6.89a8.87,8.87,0,0,1-.25,2.28,3.46,3.46,0,0,1-1.35,1.77,5.5,5.5,0,0,1-3.34.76,10.5,10.5,0,0,1-2.32-.25,3.68,3.68,0,0,1-1.82-1,3.1,3.1,0,0,1-.88-1.44,6.71,6.71,0,0,1-.17-1.69V43.13H189v-.64h6.84v.64H194Z" transform="translate(0.04)"/><path class="cls-2" d="M210,55.71h-6.84v-.63h1.69v-12h-1.69v-.63h7.05a5.23,5.23,0,0,1,3.51.93,2.81,2.81,0,0,1,1.05,2.15,2.84,2.84,0,0,1-.8,1.95,4.55,4.55,0,0,1-2.83,1.18v0c2.74.34,4.14,1.48,4.14,3.34a3.16,3.16,0,0,1-1.31,2.66A6.6,6.6,0,0,1,210,55.71Zm-1.9-12.63v5.33h.76a2.93,2.93,0,0,0,1.94-.43,3.41,3.41,0,0,0,.51-2.28,4.08,4.08,0,0,0-.38-2.11c-.26-.38-.85-.55-1.78-.55h-1.05Zm1,6h-1v6h.76a3.15,3.15,0,0,0,2.28-.59,4.47,4.47,0,0,0,.51-2.66,3.23,3.23,0,0,0-.6-2.24A2.66,2.66,0,0,0,209.08,49Z" transform="translate(0.04)"/><polygon class="cls-2" points="30.33 0 0.04 17.49 0.04 62.51 30.33 80 60.57 62.51 60.57 17.45 30.33 0"/><path class="cls-3" d="M3.46,46.34V46H57.4v.38H32.9a2,2,0,0,1-3.88,0Z" transform="translate(0.04)"/><g class="cls-4"><rect class="cls-5" x="2.91" y="49.17" width="56.18" height="5.7"/></g><g class="cls-6"><rect class="cls-5" x="2.91" y="49.17" width="56.18" height="5.7"/></g><g class="cls-7"><rect class="cls-5" x="2.91" y="49.17" width="56.18" height="5.7"/></g><g class="cls-8"><rect class="cls-5" x="2.91" y="49.17" width="56.18" height="5.7"/></g><g class="cls-9"><rect class="cls-5" x="2.91" y="49.17" width="56.18" height="5.7"/></g><g class="cls-10"><rect class="cls-5" x="2.91" y="49.17" width="56.18" height="5.7"/></g><g class="cls-11"><rect class="cls-5" x="2.91" y="49.17" width="56.18" height="5.7"/></g><g class="cls-12"><rect class="cls-5" x="2.91" y="49.17" width="56.18" height="5.7"/></g><g class="cls-13"><rect class="cls-5" x="2.91" y="49.17" width="56.18" height="5.7"/></g><g class="cls-14"><rect class="cls-5" x="2.91" y="49.17" width="56.18" height="5.7"/></g><g class="cls-15"><rect class="cls-5" x="2.91" y="49.17" width="56.18" height="5.7"/></g><g class="cls-16"><rect class="cls-5" x="2.91" y="49.17" width="56.18" height="5.7"/></g><g class="cls-17"><rect class="cls-5" x="2.91" y="49.17" width="56.18" height="5.7"/></g><g class="cls-18"><rect class="cls-5" x="2.91" y="49.17" width="56.18" height="5.7"/></g><g class="cls-19"><rect class="cls-5" x="2.91" y="49.17" width="56.18" height="5.7"/></g><g class="cls-20"><rect class="cls-5" x="2.91" y="49.17" width="56.18" height="5.7"/></g><g class="cls-21"><rect class="cls-5" x="2.91" y="49.17" width="56.18" height="5.7"/></g><g class="cls-22"><rect class="cls-5" x="2.91" y="49.17" width="56.18" height="5.7"/></g><g class="cls-23"><rect class="cls-5" x="2.91" y="49.17" width="56.18" height="5.7"/></g><g class="cls-24"><rect class="cls-5" x="2.91" y="49.17" width="56.18" height="5.7"/></g><g class="cls-25"><rect class="cls-5" x="2.91" y="49.17" width="56.18" height="5.7"/></g><g class="cls-26"><rect class="cls-5" x="2.91" y="49.17" width="56.18" height="5.7"/></g><g class="cls-27"><rect class="cls-28" x="0.21" y="0.25" width="60.32" height="18.67"/></g><g class="cls-29"><rect class="cls-30" y="57.66" width="60.49" height="13.73"/></g><g class="cls-31"><rect class="cls-30" y="57.66" width="60.49" height="13.73"/></g><g class="cls-32"><rect class="cls-30" y="57.66" width="60.49" height="13.73"/></g><g class="cls-33"><rect class="cls-30" y="57.66" width="60.49" height="13.73"/></g><polygon class="cls-34" points="31.51 69.99 30.83 69.99 30.2 69.99 30.2 60.91 31.51 60.91 31.51 69.99"/><g class="cls-35"><rect class="cls-30" y="57.66" width="60.49" height="13.73"/></g><g class="cls-36"><rect class="cls-30" y="57.66" width="60.49" height="13.73"/></g><g class="cls-37"><rect class="cls-30" y="57.66" width="60.49" height="13.73"/></g><g class="cls-38"><rect class="cls-39" x="3.08" y="22.77" width="55.12" height="20.49"/></g><g class="cls-40"><rect class="cls-39" x="3.08" y="22.77" width="55.12" height="20.49"/></g><g class="cls-41"><rect class="cls-39" x="3.08" y="22.77" width="55.12" height="20.49"/></g></svg>